<svg xmlns="http://www.w3.org/2000/svg" width="1400" height="800" viewBox="0 0 1400 800" fill="none">
  <defs>
    <linearGradient id="bg" x1="0" y1="0" x2="1" y2="1">
      <stop offset="0" stop-color="#4338CA" />
      <stop offset="0.5" stop-color="#7C3AED" />
      <stop offset="1" stop-color="#EC4899" />
    </linearGradient>
  </defs>
  <rect width="1400" height="800" rx="48" fill="url(#bg)" />
  <rect x="80" y="80" width="1240" height="640" rx="32" fill="white" fill-opacity="0.96" />
  <rect x="120" y="140" width="260" height="40" rx="20" fill="#EEF2FF" />
  <rect x="400" y="140" width="260" height="40" rx="20" fill="#EEF2FF" />
  <rect x="680" y="140" width="260" height="40" rx="20" fill="#EEF2FF" />
  <rect x="120" y="220" width="520" height="260" rx="24" fill="#EEF2FF" />
  <rect x="680" y="220" width="520" height="120" rx="24" fill="#EEF2FF" />
  <rect x="680" y="360" width="520" height="120" rx="24" fill="#EEF2FF" />
  <rect x="120" y="520" width="520" height="140" rx="24" fill="#EEF2FF" />
  <rect x="680" y="520" width="260" height="140" rx="24" fill="#EEF2FF" />
  <rect x="960" y="520" width="240" height="140" rx="24" fill="#EEF2FF" />
  <text x="140" y="265" font-family="system-ui, -apple-system, BlinkMacSystemFont, 'Segoe UI', sans-serif" font-size="24" fill="#111827" font-weight="600">
    Dashboard preview
  </text>
  <text x="140" y="305" font-family="system-ui, -apple-system, BlinkMacSystemFont, 'Segoe UI', sans-serif" font-size="16" fill="#4B5563">
    Example charts, activity timeline and projects overview.
  </text>
</svg>
